Coordinates
version=1
nRows=9
nColumns=24
inDegrees=yes

Units are S.I. units (second, meters, Newtons, ...)
Angles are in degrees.

endheader
time	pelvis_tilt	pelvis_list	pelvis_rotation	pelvis_tx	pelvis_ty	pelvis_tz	hip_flexion_r	hip_adduction_r	hip_rotation_r	knee_angle_r	ankle_angle_r	subtalar_angle_r	mtp_angle_r	hip_flexion_l	hip_adduction_l	hip_rotation_l	knee_angle_l	ankle_angle_l	subtalar_angle_l	mtp_angle_l	lumbar_extension	lumbar_bending	lumbar_rotation
      0.70400000	     -4.14555918	      3.61661021	      8.55109941	     -0.05196509	      0.96391742	      0.24578502	     35.35314728	     -9.63784506	     -9.41405281	     -3.25195235	      8.14859547	     -8.60014052	     -0.90578125	    -17.50888948	      3.62708904	      2.12596715	     -6.32895816	     14.09456896	     -5.35164816	     -0.07267642	     -8.19322821	     -2.23230091	     -5.10665546
      0.70816667	     -3.89405772	      3.54228627	      8.63566867	     -0.04555683	      0.96331971	      0.24615014	     35.02810810	     -9.54781545	     -9.29663559	     -3.90348240	      8.36519979	     -8.48464153	     -8.00034880	    -18.09441720	      3.36620504	      2.07703524	     -6.40687384	     13.91485301	     -5.13970260	     -2.23935969	     -8.44699210	     -2.01437156	     -5.30465935
      0.71233333	     -3.97012164	      3.49469496	      8.71906055	     -0.03896383	      0.96217883	      0.24651336	     35.07239044	     -9.51671420	     -9.21280783	     -4.58212591	      8.44454429	     -8.34159619	     -8.00113253	    -18.32564089	      3.18919341	      2.02098481	     -6.52647020	     13.65580505	     -4.96626809	     -2.24724055	     -8.26141625	     -1.88325414	     -5.29686662
      0.71650000	     -4.01816356	      3.44550508	      8.78914378	     -0.03237949	      0.96108837	      0.24696212	     35.07388642	     -9.46431344	     -9.13165443	     -5.22942093	      8.46823437	     -8.16128639	     -7.99392490	    -18.56543464	      3.00270465	      1.93524775	     -6.68906269	     13.46234928	     -4.72475485	     -2.24433959	     -8.15482307	     -1.76122431	     -5.32869367
      0.72066667	     -4.02168901	      3.35828291	      8.87146726	     -0.02569610	      0.96012184	      0.24739990	     34.97907047	     -9.36939704	     -9.12282908	     -5.78964582	      8.38782462	     -8.06403052	     -7.96638213	    -18.83624304	      2.76202476	      1.79475402	     -6.87517036	     13.28709803	     -4.43134824	     -2.21573809	     -8.05270250	     -1.58587358	     -5.39048874
      0.72483333	     -4.00382528	      3.23037478	      8.96502945	     -0.01893905	      0.95925993	      0.24785118	     34.80900271	     -9.22560514	     -9.13321333	     -6.24388530	      8.18365262	     -8.08163354	     -7.91493026	    -19.12120279	      2.46907051	      1.66611373	     -7.05729199	     13.02987200	     -4.16146431	     -2.15711444	     -7.97094512	     -1.35796169	     -5.46577686
      0.72900000	     -3.91084306	      3.07834097	      9.08671924	     -0.01220300	      0.95860004	      0.24830223	     34.51176037	     -9.05261074	     -9.17897963	     -6.60001689	      7.87360111	     -8.21743704	     -7.78465451	    -19.44619896	      2.12364350	      1.51353701	     -7.29492950	     12.75995331	     -3.83377507	     -2.00267865	     -7.99236913	     -1.09232751	     -5.53430633
      0.73316667	     -3.93362809	      2.93112654	      9.17159193	     -0.00535527	      0.95777290	      0.24876376	     34.34864146	     -8.87933895	     -9.22998143	     -6.94663952	      7.47456737	     -8.30130846	     -7.69892847	    -19.66427400	      1.82608408	      1.40930627	     -7.51180920	     12.41885198	     -3.69429066	     -1.89877726	     -7.84535549	     -0.84859188	     -5.58216446
      0.73733333	     -3.79623010	      2.73646143	      9.27279514	      0.00144332	      0.95729423	      0.24931222	     33.95827641	     -8.62755251	     -9.29035541	     -7.15743153	      6.91780279	     -8.58886260	     -7.46922066	    -19.99526986	      1.42786540	      1.19070790	     -7.80247327	     12.07927294	     -3.33188106	     -1.61920923	     -7.91069487	     -0.53690411	     -5.66901711
